<svg width="23" height="23" viewBox="0 0 23 23" fill="none" xmlns="http://www.w3.org/2000/svg">
<path d="M4.5 14.2042H5.25C5.24992 14.0515 5.20732 13.9022 5.12739 13.7745C5.04746 13.6468 4.93369 13.5463 4.8 13.4852L4.5 14.2042ZM18.5 14.2042L18.2 13.4852C18.0663 13.5463 17.9525 13.6468 17.8726 13.7745C17.7927 13.9022 17.7501 14.0515 17.75 14.2042H18.5ZM15.25 6.26744C15.25 6.47561 15.329 6.67524 15.4697 6.82244C15.6103 6.96963 15.8011 7.05233 16 7.05233C16.1989 7.05233 16.3897 6.96963 16.5303 6.82244C16.671 6.67524 16.75 6.47561 16.75 6.26744H15.25ZM6.25 6.26744C6.25 6.47561 6.32902 6.67524 6.46967 6.82244C6.61032 6.96963 6.80109 7.05233 7 7.05233C7.19891 7.05233 7.38968 6.96963 7.53033 6.82244C7.67098 6.67524 7.75 6.47561 7.75 6.26744H6.25ZM6.5 3.38953C4.97501 3.38953 3.51247 4.02351 2.43414 5.152C1.3558 6.28049 0.75 7.81105 0.75 9.40698H2.25C2.25 8.22738 2.69777 7.0961 3.4948 6.262C4.29183 5.4279 5.37283 4.9593 6.5 4.9593V3.38953ZM16.5 4.9593C17.6272 4.9593 18.7082 5.4279 19.5052 6.262C20.3022 7.0961 20.75 8.22738 20.75 9.40698H22.25C22.25 7.81105 21.6442 6.28049 20.5659 5.152C19.4875 4.02351 18.025 3.38953 16.5 3.38953V4.9593ZM14.5 21.1802H8.5V22.75H14.5V21.1802ZM8.5 21.1802C7.536 21.1802 6.888 21.1781 6.405 21.1101C5.944 21.0452 5.746 20.9333 5.616 20.7962L4.556 21.9076C5.011 22.3837 5.578 22.5773 6.206 22.6663C6.812 22.7521 7.578 22.75 8.5 22.75V21.1802ZM3.75 17.7791C3.75 18.744 3.748 19.5456 3.83 20.1798C3.914 20.837 4.1 21.4303 4.555 21.9065L5.616 20.7972C5.486 20.6612 5.379 20.454 5.316 19.9705C5.252 19.466 5.25 18.7879 5.25 17.7791H3.75ZM17.75 17.7791C17.75 18.7879 17.748 19.466 17.683 19.9715C17.621 20.454 17.514 20.6612 17.383 20.7972L18.445 21.9065C18.9 21.4303 19.085 20.837 19.17 20.1798C19.252 19.5456 19.25 18.744 19.25 17.7791H17.75ZM14.5 22.75C15.422 22.75 16.188 22.7521 16.794 22.6663C17.422 22.5784 17.99 22.3837 18.445 21.9065L17.384 20.7972C17.254 20.9333 17.056 21.0452 16.594 21.1112C16.112 21.1781 15.464 21.1802 14.5 21.1802V22.75ZM6.5 4.9593C6.714 4.9593 6.923 4.97605 7.128 5.00744L7.347 3.45442C7.06656 3.41113 6.78347 3.38944 6.5 3.38953V4.9593ZM11.5 0.25C10.4028 0.250001 9.3331 0.60963 8.44117 1.27839C7.54925 1.94715 6.87986 2.89146 6.527 3.97872L7.947 4.48314C8.19916 3.70643 8.67745 3.03187 9.31469 2.55418C9.95194 2.0765 10.7161 1.81967 11.5 1.81977V0.25ZM6.527 3.97872C6.34303 4.5474 6.24945 5.1438 6.25 5.74419H7.75C7.75 5.30151 7.82 4.87767 7.948 4.48314L6.527 3.97872ZM16.5 3.38953C16.213 3.38953 15.93 3.41151 15.653 3.45442L15.873 5.00744C16.0806 4.97537 16.2902 4.95928 16.5 4.9593V3.38953ZM11.5 1.81977C12.2837 1.81989 13.0477 2.07682 13.6847 2.55449C14.3218 3.03216 14.7999 3.7066 15.052 4.48314L16.472 3.97872C16.1192 2.89163 15.45 1.94744 14.5582 1.2787C13.6665 0.60995 12.5971 0.25022 11.5 0.25V1.81977ZM15.052 4.48314C15.18 4.87767 15.25 5.30151 15.25 5.74419H16.75C16.75 5.12779 16.652 4.53442 16.472 3.97872L15.053 4.48314H15.052ZM5.25 17.7791V14.2042H3.75V17.7791H5.25ZM4.8 13.4852C4.04188 13.1388 3.39681 12.5685 2.94386 11.8441C2.49092 11.1197 2.24978 10.2727 2.25 9.40698H0.75C0.749925 10.578 1.07628 11.7236 1.68908 12.7034C2.30188 13.6832 3.1745 14.4546 4.2 14.9231L4.8 13.4852ZM17.75 14.2042V17.7791H19.25V14.2042H17.75ZM20.75 9.40698C20.7502 10.2727 20.5091 11.1197 20.0561 11.8441C19.6032 12.5685 18.9581 13.1388 18.2 13.4852L18.8 14.9231C19.8255 14.4546 20.6981 13.6832 21.3109 12.7034C21.9237 11.7236 22.2501 10.578 22.25 9.40698H20.75ZM15.25 5.74419V6.26744H16.75V5.74419H15.25ZM6.25 5.74419V6.26744H7.75V5.74419H6.25Z" fill="#1F1711"/>
<path opacity="0.7" d="M11.5 9.402L10.981 9.96921C11.1206 10.1093 11.3066 10.1875 11.5 10.1875C11.6934 10.1875 11.8794 10.1093 12.019 9.96921L11.5 9.402ZM10.986 12.6137C10.569 12.2935 10.108 11.8917 9.759 11.471C9.391 11.0251 9.25 10.6787 9.25 10.4537H7.75C7.75 11.2596 8.191 11.9722 8.625 12.4976C9.078 13.046 9.639 13.5263 10.099 13.879L10.986 12.6137ZM9.25 10.4537C9.25 9.85095 9.513 9.58933 9.742 9.50456C9.992 9.41246 10.456 9.44177 10.982 9.96921L12.019 8.83479C11.194 8.00805 10.158 7.68886 9.246 8.02374C8.312 8.36595 7.75 9.30572 7.75 10.4537H9.25ZM12.9 13.88C13.36 13.5263 13.922 13.046 14.375 12.4976C14.809 11.9722 15.25 11.2596 15.25 10.4537H13.75C13.75 10.6787 13.609 11.0251 13.24 11.471C12.892 11.8927 12.431 12.2935 12.014 12.6137L12.901 13.88H12.9ZM15.25 10.4537C15.25 9.30572 14.687 8.36595 13.754 8.02374C12.842 7.68886 11.806 8.00909 10.981 8.83479L12.019 9.96921C12.544 9.44177 13.008 9.41246 13.259 9.50456C13.487 9.58828 13.75 9.85095 13.75 10.4537H15.25ZM10.1 13.88C10.468 14.1626 10.882 14.5153 11.5 14.5153V12.9455C11.476 12.9455 11.46 12.9455 11.406 12.9151C11.26 12.8241 11.1197 12.7235 10.986 12.6137L10.099 13.88H10.1ZM12.014 12.6137C11.8803 12.7235 11.74 12.8241 11.594 12.9151C11.54 12.9455 11.524 12.9455 11.5 12.9455V14.5153C12.118 14.5153 12.532 14.1626 12.9 13.88L12.014 12.6137Z" fill="#1F1711"/>
<path opacity="0.7" d="M4.5 17.7793H18.5" stroke="#1F1711" stroke-width="1.5" stroke-linecap="round" stroke-linejoin="round"/>
</svg>
