<?xml version="1.0" standalone="no"?>
<!DOCTYPE svg PUBLIC "-//W3C//DTD SVG 20010904//EN"
 "http://www.w3.org/TR/2001/REC-SVG-20010904/DTD/svg10.dtd">
<svg version="1.0" xmlns="http://www.w3.org/2000/svg"
 width="1000.000000pt" height="1000.000000pt" viewBox="0 0 1000.000000 1000.000000"
 preserveAspectRatio="xMidYMid meet">

<g transform="translate(0.000000,1000.000000) scale(0.100000,-0.100000)"
fill="#000000" stroke="none">
<path d="M4390 8739 c-220 -30 -349 -65 -506 -140 -226 -106 -408 -250 -590
-464 -106 -124 -208 -304 -253 -445 -83 -259 -61 -623 54 -873 14 -31 25 -58
25 -61 0 -6 56 -101 93 -156 136 -202 360 -387 597 -493 74 -33 214 -83 272
-98 26 -6 53 -17 59 -25 7 -9 33 -14 73 -14 83 0 267 -32 289 -50 11 -10 17
-29 17 -57 0 -42 -1 -43 -34 -43 -70 0 -293 -68 -399 -122 -66 -33 -105 -68
-133 -118 -10 -19 -21 -37 -24 -40 -14 -14 -152 -290 -175 -350 -10 -25 -23
-58 -30 -75 -7 -16 -18 -46 -25 -65 -7 -19 -19 -49 -26 -67 -8 -17 -14 -38
-14 -46 0 -9 -4 -19 -10 -22 -5 -3 -10 -16 -10 -29 0 -12 -3 -26 -7 -30 -5 -4
-13 -26 -18 -49 -6 -23 -14 -41 -19 -41 -4 1 -103 51 -219 112 -240 125 -384
185 -500 207 -172 33 -421 8 -556 -55 -82 -39 -99 -54 -107 -96 -14 -74 56
-134 159 -134 31 0 57 -4 57 -8 0 -4 -19 -23 -42 -42 -95 -78 -190 -190 -219
-257 -15 -35 -16 -49 -7 -75 32 -95 90 -124 231 -115 58 4 118 15 162 30 85
29 274 111 332 144 48 27 50 26 157 -41 28 -18 58 -36 66 -39 8 -4 29 -16 45
-27 17 -11 37 -23 45 -27 8 -4 56 -30 105 -58 134 -77 312 -168 380 -195 33
-13 65 -27 70 -31 17 -11 111 -31 131 -27 15 2 19 -3 17 -22 -2 -30 -27 -182
-63 -390 -22 -119 -40 -228 -50 -289 -6 -35 -12 -66 -14 -70 -2 -3 -7 -46 -11
-96 -4 -49 -11 -110 -16 -135 -5 -25 -12 -283 -14 -575 -5 -496 -13 -720 -36
-959 -5 -54 -9 -178 -10 -275 -1 -97 -4 -200 -7 -230 l-7 -54 -55 -19 c-124
-42 -330 -158 -438 -246 -38 -31 -43 -39 -40 -71 3 -31 9 -39 48 -58 40 -21
58 -23 197 -23 83 0 205 7 270 16 65 8 150 19 188 24 39 5 106 14 150 20 156
21 305 65 305 91 0 7 16 27 36 46 35 31 36 35 30 80 -4 27 -12 70 -18 97 -11
51 -8 258 12 641 5 105 9 384 10 622 0 238 4 442 9 455 8 21 16 54 52 226 l13
63 91 -8 c100 -9 405 -11 504 -3 l64 5 14 -75 c7 -41 18 -95 22 -120 5 -25 16
-83 25 -130 8 -47 20 -107 26 -135 21 -99 50 -289 76 -490 42 -331 53 -487 64
-950 9 -385 16 -462 43 -482 30 -23 202 -66 347 -88 564 -84 696 -94 870 -68
49 7 55 11 58 33 2 15 -6 35 -19 49 -66 71 -336 244 -504 322 l-86 40 2 62 c2
74 -10 405 -17 462 -2 22 -9 117 -14 210 -5 94 -12 195 -15 225 -6 63 -21 238
-36 420 -5 68 -7 129 -5 136 2 7 -2 74 -9 151 -8 76 -14 186 -14 245 1 58 -4
114 -9 125 -5 10 -15 74 -21 143 -23 235 -32 305 -70 525 -11 66 -23 183 -27
260 -3 77 -8 147 -9 155 -1 8 -6 48 -10 88 -5 49 -15 88 -32 118 -17 30 -26
65 -29 106 -2 34 -6 70 -10 80 -9 29 20 22 38 -9 27 -47 140 -160 197 -197 49
-33 59 -36 127 -36 86 0 162 23 274 83 85 45 239 148 319 213 29 24 58 44 63
44 6 0 31 -15 57 -33 124 -89 254 -130 411 -131 109 -1 117 0 147 24 52 42 67
77 67 155 1 60 -4 78 -29 122 -32 56 -122 156 -174 192 -33 24 -39 45 -18 58
17 11 33 35 41 60 16 53 -132 133 -333 179 -36 9 -71 20 -77 25 -18 15 -187
-59 -394 -172 -102 -56 -203 -114 -224 -130 -61 -45 -67 -41 -100 64 -16 50
-33 99 -37 107 -4 8 -15 38 -24 65 -9 28 -20 59 -25 70 -4 11 -15 40 -25 65
-9 25 -21 53 -26 62 -5 10 -9 22 -9 28 0 5 -11 33 -24 62 -14 29 -43 103 -67
163 -48 126 -70 152 -174 204 -103 51 -190 78 -297 92 -88 12 -98 15 -98 34 0
21 55 116 87 149 34 35 139 76 249 97 211 40 419 152 579 313 39 39 79 82 90
96 38 47 121 185 139 230 10 25 22 54 27 65 4 11 15 45 24 75 9 30 20 69 25
85 5 17 16 89 25 160 18 138 15 238 -10 382 -33 186 -41 210 -123 383 -174
365 -544 667 -1022 835 -294 103 -673 139 -1000 94z m635 -149 c66 -10 129
-22 140 -24 11 -3 67 -17 125 -30 576 -138 975 -508 1111 -1031 20 -79 23
-114 24 -280 0 -149 -4 -209 -19 -279 -55 -262 -170 -452 -370 -612 -85 -68
-255 -159 -361 -192 -122 -39 -161 -50 -195 -56 -19 -4 -53 -11 -75 -17 -22
-5 -87 -15 -145 -22 -83 -10 -104 -16 -102 -27 14 -60 16 -127 9 -273 -10
-190 -8 -200 52 -195 28 2 40 10 56 36 l20 33 135 -3 c154 -4 193 -17 249 -85
76 -92 186 -366 264 -658 7 -27 53 -182 65 -222 9 -26 7 -36 -9 -54 -31 -36
-34 -61 -9 -81 14 -11 30 -16 42 -12 16 5 251 143 380 223 14 9 64 38 110 65
45 28 121 74 167 104 l85 54 49 -16 c27 -9 55 -16 63 -16 7 0 38 -8 69 -17 39
-12 55 -22 55 -34 0 -10 -4 -21 -10 -24 -14 -9 -12 -77 3 -95 7 -9 44 -42 82
-74 175 -146 212 -196 200 -271 -3 -25 -12 -46 -21 -49 -47 -18 -170 10 -298
69 -54 24 -87 34 -105 30 -36 -8 -114 18 -152 49 -17 14 -35 26 -40 26 -5 0
-62 -44 -127 -98 -138 -116 -220 -173 -311 -215 -58 -28 -77 -31 -156 -32 -88
0 -92 1 -139 35 -62 45 -112 127 -154 255 -25 76 -46 119 -90 180 -69 95 -111
127 -162 123 -31 -3 -35 -6 -38 -35 -2 -21 6 -46 24 -75 22 -34 29 -62 36
-130 14 -154 27 -262 37 -313 6 -27 17 -97 26 -155 9 -58 20 -127 25 -155 5
-27 16 -97 25 -155 9 -58 20 -130 25 -160 9 -54 32 -221 50 -370 5 -41 14
-127 20 -190 10 -111 21 -219 40 -385 5 -44 15 -154 21 -245 6 -91 15 -210 20
-265 5 -55 13 -291 18 -525 15 -674 43 -879 120 -880 9 0 57 -30 106 -66 50
-36 126 -91 170 -122 l80 -57 -34 -3 c-19 -2 -93 4 -165 13 -274 33 -386 45
-530 55 -83 6 -154 14 -159 17 -5 3 -5 17 -2 32 4 14 7 201 6 416 -1 413 -11
572 -56 875 -13 91 -33 230 -45 309 -11 79 -25 219 -29 310 -8 141 -14 180
-39 261 -16 52 -37 120 -46 150 -16 58 -71 130 -99 130 -19 0 -47 -37 -47 -62
0 -22 -13 -22 -86 -3 -76 20 -382 45 -543 45 -154 0 -166 -6 -175 -90 -3 -30
-13 -116 -22 -190 -12 -100 -18 -276 -23 -685 -5 -302 -13 -662 -20 -800 -11
-226 -9 -428 5 -511 l6 -31 -89 -7 c-105 -8 -269 -28 -625 -76 -91 -13 -175
-19 -185 -15 -15 6 -15 8 -3 12 48 17 292 135 355 173 17 10 46 21 65 25 19 4
40 11 46 17 8 5 15 66 19 156 4 81 9 163 11 182 5 49 23 553 34 960 5 190 12
377 14 415 13 177 26 342 41 480 24 238 60 531 74 610 5 28 17 97 26 155 9 58
20 125 25 150 5 25 16 88 24 140 9 52 21 118 26 145 5 28 17 93 26 145 8 52
19 115 24 140 4 25 16 88 25 140 9 52 20 115 25 140 37 200 40 250 18 250 -5
0 -23 9 -39 21 -39 27 -52 21 -68 -32 -7 -24 -17 -55 -22 -69 -4 -14 -13 -65
-19 -115 -14 -109 -24 -168 -45 -260 -49 -210 -65 -299 -69 -378 -2 -41 -9
-74 -17 -82 -21 -20 -432 148 -599 244 -69 40 -173 96 -231 124 -61 30 -110
60 -115 72 -18 39 -67 31 -172 -28 -160 -90 -275 -135 -390 -151 -51 -8 -121
9 -129 30 -14 37 170 233 298 315 28 19 49 40 49 50 0 22 -37 49 -67 49 -14 0
-23 6 -23 15 0 23 -34 35 -104 35 -36 0 -66 4 -66 9 0 14 215 54 355 66 39 4
85 11 102 17 29 8 41 5 100 -27 38 -21 97 -53 133 -72 36 -20 112 -62 170 -93
114 -63 262 -134 324 -156 50 -18 130 -18 145 0 6 7 8 26 5 43 -5 27 4 61 35
123 4 8 22 62 40 120 32 102 37 118 59 170 5 14 18 48 27 75 9 28 23 64 31 82
8 17 14 34 14 38 0 14 57 123 96 185 56 88 116 145 194 183 58 28 77 32 171
35 126 5 139 -2 139 -76 1 -69 41 -110 94 -96 44 11 56 51 56 192 0 77 4 133
10 137 6 3 10 34 10 68 0 88 -7 92 -177 111 -76 9 -160 21 -188 27 -130 29
-245 60 -295 79 -30 12 -68 25 -83 30 -57 18 -218 101 -285 147 -59 41 -90 66
-187 148 -30 26 -136 156 -168 207 -99 157 -160 330 -188 538 -12 83 -5 338 9
385 5 17 17 59 27 95 9 36 21 74 25 85 62 158 141 301 170 310 22 7 78 82 103
137 10 20 30 46 46 57 79 56 374 190 501 227 25 7 77 22 115 33 78 23 280 58
365 65 121 9 427 -4 545 -24z"/>
<path d="M3612 7674 c-18 -9 -40 -30 -48 -46 -20 -39 -9 -110 23 -149 52 -61
164 -23 182 62 9 44 -2 97 -27 121 -27 27 -89 33 -130 12z"/>
<path d="M5554 7676 c-43 -19 -64 -53 -64 -104 0 -79 36 -122 103 -122 41 0
79 27 101 74 20 43 20 69 0 111 -24 50 -80 67 -140 41z"/>
<path d="M4430 7068 c-35 -5 -70 -14 -77 -20 -21 -17 -15 -47 10 -53 34 -9
467 14 488 26 23 12 25 45 3 53 -24 9 -350 5 -424 -6z"/>
</g>
</svg>
